<svg xmlns="http://www.w3.org/2000/svg" viewBox="0 0 64 64"><circle cx="32" cy="32" r="30" fill="#141417"/><path d="M28.25 8.3A24 24 0 0 1 35.75 8.3L34.97 13.23A19 19 0 0 0 29.03 13.23Z" fill="#c62828"/><path d="M29.03 13.23A19 19 0 0 1 34.97 13.23L33.33 23.6A8.5 8.5 0 0 0 30.67 23.6Z" fill="#1e1e22"/><path d="M35.75 8.3A24 24 0 0 1 42.9 10.62L40.63 15.07A19 19 0 0 0 34.97 13.23Z" fill="#2e7d32"/><path d="M34.97 13.23A19 19 0 0 1 40.63 15.07L35.86 24.43A8.5 8.5 0 0 0 33.33 23.6Z" fill="#f0e6d2"/><path d="M42.9 10.62A24 24 0 0 1 48.97 15.03L45.44 18.56A19 19 0 0 0 40.63 15.07Z" fill="#c62828"/><path d="M40.63 15.07A19 19 0 0 1 45.44 18.56L38.01 25.99A8.5 8.5 0 0 0 35.86 24.43Z" fill="#1e1e22"/><path d="M48.97 15.03A24 24 0 0 1 53.38 21.1L48.93 23.37A19 19 0 0 0 45.44 18.56Z" fill="#2e7d32"/><path d="M45.44 18.56A19 19 0 0 1 48.93 23.37L39.57 28.14A8.5 8.5 0 0 0 38.01 25.99Z" fill="#f0e6d2"/><path d="M53.38 21.1A24 24 0 0 1 55.7 28.25L50.77 29.03A19 19 0 0 0 48.93 23.37Z" fill="#c62828"/><path d="M48.93 23.37A19 19 0 0 1 50.77 29.03L40.4 30.67A8.5 8.5 0 0 0 39.57 28.14Z" fill="#1e1e22"/><path d="M55.7 28.25A24 24 0 0 1 55.7 35.75L50.77 34.97A19 19 0 0 0 50.77 29.03Z" fill="#2e7d32"/><path d="M50.77 29.03A19 19 0 0 1 50.77 34.97L40.4 33.33A8.5 8.5 0 0 0 40.4 30.67Z" fill="#f0e6d2"/><path d="M55.7 35.75A24 24 0 0 1 53.38 42.9L48.93 40.63A19 19 0 0 0 50.77 34.97Z" fill="#c62828"/><path d="M50.77 34.97A19 19 0 0 1 48.93 40.63L39.57 35.86A8.5 8.5 0 0 0 40.4 33.33Z" fill="#1e1e22"/><path d="M53.38 42.9A24 24 0 0 1 48.97 48.97L45.44 45.44A19 19 0 0 0 48.93 40.63Z" fill="#2e7d32"/><path d="M48.93 40.63A19 19 0 0 1 45.44 45.44L38.01 38.01A8.5 8.5 0 0 0 39.57 35.86Z" fill="#f0e6d2"/><path d="M48.97 48.97A24 24 0 0 1 42.9 53.38L40.63 48.93A19 19 0 0 0 45.44 45.44Z" fill="#c62828"/><path d="M45.44 45.44A19 19 0 0 1 40.63 48.93L35.86 39.57A8.5 8.5 0 0 0 38.01 38.01Z" fill="#1e1e22"/><path d="M42.9 53.38A24 24 0 0 1 35.75 55.7L34.97 50.77A19 19 0 0 0 40.63 48.93Z" fill="#2e7d32"/><path d="M40.63 48.93A19 19 0 0 1 34.97 50.77L33.33 40.4A8.5 8.5 0 0 0 35.86 39.57Z" fill="#f0e6d2"/><path d="M35.75 55.7A24 24 0 0 1 28.25 55.7L29.03 50.77A19 19 0 0 0 34.97 50.77Z" fill="#c62828"/><path d="M34.97 50.77A19 19 0 0 1 29.03 50.77L30.67 40.4A8.5 8.5 0 0 0 33.33 40.4Z" fill="#1e1e22"/><path d="M28.25 55.7A24 24 0 0 1 21.1 53.38L23.37 48.93A19 19 0 0 0 29.03 50.77Z" fill="#2e7d32"/><path d="M29.03 50.77A19 19 0 0 1 23.37 48.93L28.14 39.57A8.5 8.5 0 0 0 30.67 40.4Z" fill="#f0e6d2"/><path d="M21.1 53.38A24 24 0 0 1 15.03 48.97L18.56 45.44A19 19 0 0 0 23.37 48.93Z" fill="#c62828"/><path d="M23.37 48.93A19 19 0 0 1 18.56 45.44L25.99 38.01A8.5 8.5 0 0 0 28.14 39.57Z" fill="#1e1e22"/><path d="M15.03 48.97A24 24 0 0 1 10.62 42.9L15.07 40.63A19 19 0 0 0 18.56 45.44Z" fill="#2e7d32"/><path d="M18.56 45.44A19 19 0 0 1 15.07 40.63L24.43 35.86A8.5 8.5 0 0 0 25.99 38.01Z" fill="#f0e6d2"/><path d="M10.62 42.9A24 24 0 0 1 8.3 35.75L13.23 34.97A19 19 0 0 0 15.07 40.63Z" fill="#c62828"/><path d="M15.07 40.63A19 19 0 0 1 13.23 34.97L23.6 33.33A8.5 8.5 0 0 0 24.43 35.86Z" fill="#1e1e22"/><path d="M8.3 35.75A24 24 0 0 1 8.3 28.25L13.23 29.03A19 19 0 0 0 13.23 34.97Z" fill="#2e7d32"/><path d="M13.23 34.97A19 19 0 0 1 13.23 29.03L23.6 30.67A8.5 8.5 0 0 0 23.6 33.33Z" fill="#f0e6d2"/><path d="M8.3 28.25A24 24 0 0 1 10.62 21.1L15.07 23.37A19 19 0 0 0 13.23 29.03Z" fill="#c62828"/><path d="M13.23 29.03A19 19 0 0 1 15.07 23.37L24.43 28.14A8.5 8.5 0 0 0 23.6 30.67Z" fill="#1e1e22"/><path d="M10.62 21.1A24 24 0 0 1 15.03 15.03L18.56 18.56A19 19 0 0 0 15.07 23.37Z" fill="#2e7d32"/><path d="M15.07 23.37A19 19 0 0 1 18.56 18.56L25.99 25.99A8.5 8.5 0 0 0 24.43 28.14Z" fill="#f0e6d2"/><path d="M15.03 15.03A24 24 0 0 1 21.1 10.62L23.37 15.07A19 19 0 0 0 18.56 18.56Z" fill="#c62828"/><path d="M18.56 18.56A19 19 0 0 1 23.37 15.07L28.14 24.43A8.5 8.5 0 0 0 25.99 25.99Z" fill="#1e1e22"/><path d="M21.1 10.62A24 24 0 0 1 28.25 8.3L29.03 13.23A19 19 0 0 0 23.37 15.07Z" fill="#2e7d32"/><path d="M23.37 15.07A19 19 0 0 1 29.03 13.23L30.67 23.6A8.5 8.5 0 0 0 28.14 24.43Z" fill="#f0e6d2"/><circle cx="32" cy="32" r="8.5" fill="#2e7d32"/><circle cx="32" cy="32" r="4.5" fill="#c62828"/></svg>
