<svg xmlns="http://www.w3.org/2000/svg" viewBox="0 0 64 64"><circle cx="32" cy="32" r="30" fill="#141417"/><path d="M27.85 5.83A26.5 26.5 0 0 1 36.15 5.83L35.36 10.76A21.5 21.5 0 0 0 28.64 10.76Z" fill="#c62828"/><path d="M28.64 10.76A21.5 21.5 0 0 1 35.36 10.76L33.41 23.11A9 9 0 0 0 30.59 23.11Z" fill="#1e1e22"/><path d="M36.15 5.83A26.5 26.5 0 0 1 44.03 8.39L41.76 12.84A21.5 21.5 0 0 0 35.36 10.76Z" fill="#2e7d32"/><path d="M35.36 10.76A21.5 21.5 0 0 1 41.76 12.84L36.09 23.98A9 9 0 0 0 33.41 23.11Z" fill="#f0e6d2"/><path d="M44.03 8.39A26.5 26.5 0 0 1 50.74 13.26L47.2 16.8A21.5 21.5 0 0 0 41.76 12.84Z" fill="#c62828"/><path d="M41.76 12.84A21.5 21.5 0 0 1 47.2 16.8L38.36 25.64A9 9 0 0 0 36.09 23.98Z" fill="#1e1e22"/><path d="M50.74 13.26A26.5 26.5 0 0 1 55.61 19.97L51.16 22.24A21.5 21.5 0 0 0 47.2 16.8Z" fill="#2e7d32"/><path d="M47.2 16.8A21.5 21.5 0 0 1 51.16 22.24L40.02 27.91A9 9 0 0 0 38.36 25.64Z" fill="#f0e6d2"/><path d="M55.61 19.97A26.5 26.5 0 0 1 58.17 27.85L53.24 28.64A21.5 21.5 0 0 0 51.16 22.24Z" fill="#c62828"/><path d="M51.16 22.24A21.5 21.5 0 0 1 53.24 28.64L40.89 30.59A9 9 0 0 0 40.02 27.91Z" fill="#1e1e22"/><path d="M58.17 27.85A26.5 26.5 0 0 1 58.17 36.15L53.24 35.36A21.5 21.5 0 0 0 53.24 28.64Z" fill="#2e7d32"/><path d="M53.24 28.64A21.5 21.5 0 0 1 53.24 35.36L40.89 33.41A9 9 0 0 0 40.89 30.59Z" fill="#f0e6d2"/><path d="M58.17 36.15A26.5 26.5 0 0 1 55.61 44.03L51.16 41.76A21.5 21.5 0 0 0 53.24 35.36Z" fill="#c62828"/><path d="M53.24 35.36A21.5 21.5 0 0 1 51.16 41.76L40.02 36.09A9 9 0 0 0 40.89 33.41Z" fill="#1e1e22"/><path d="M55.61 44.03A26.5 26.5 0 0 1 50.74 50.74L47.2 47.2A21.5 21.5 0 0 0 51.16 41.76Z" fill="#2e7d32"/><path d="M51.16 41.76A21.5 21.5 0 0 1 47.2 47.2L38.36 38.36A9 9 0 0 0 40.02 36.09Z" fill="#f0e6d2"/><path d="M50.74 50.74A26.5 26.5 0 0 1 44.03 55.61L41.76 51.16A21.5 21.5 0 0 0 47.2 47.2Z" fill="#c62828"/><path d="M47.2 47.2A21.5 21.5 0 0 1 41.76 51.16L36.09 40.02A9 9 0 0 0 38.36 38.36Z" fill="#1e1e22"/><path d="M44.03 55.61A26.5 26.5 0 0 1 36.15 58.17L35.36 53.24A21.5 21.5 0 0 0 41.76 51.16Z" fill="#2e7d32"/><path d="M41.76 51.16A21.5 21.5 0 0 1 35.36 53.24L33.41 40.89A9 9 0 0 0 36.09 40.02Z" fill="#f0e6d2"/><path d="M36.15 58.17A26.5 26.5 0 0 1 27.85 58.17L28.64 53.24A21.5 21.5 0 0 0 35.36 53.24Z" fill="#c62828"/><path d="M35.36 53.24A21.5 21.5 0 0 1 28.64 53.24L30.59 40.89A9 9 0 0 0 33.41 40.89Z" fill="#1e1e22"/><path d="M27.85 58.17A26.5 26.5 0 0 1 19.97 55.61L22.24 51.16A21.5 21.5 0 0 0 28.64 53.24Z" fill="#2e7d32"/><path d="M28.64 53.24A21.5 21.5 0 0 1 22.24 51.16L27.91 40.02A9 9 0 0 0 30.59 40.89Z" fill="#f0e6d2"/><path d="M19.97 55.61A26.5 26.5 0 0 1 13.26 50.74L16.8 47.2A21.5 21.5 0 0 0 22.24 51.16Z" fill="#c62828"/><path d="M22.24 51.16A21.5 21.5 0 0 1 16.8 47.2L25.64 38.36A9 9 0 0 0 27.91 40.02Z" fill="#1e1e22"/><path d="M13.26 50.74A26.5 26.5 0 0 1 8.39 44.03L12.84 41.76A21.5 21.5 0 0 0 16.8 47.2Z" fill="#2e7d32"/><path d="M16.8 47.2A21.5 21.5 0 0 1 12.84 41.76L23.98 36.09A9 9 0 0 0 25.64 38.36Z" fill="#f0e6d2"/><path d="M8.39 44.03A26.5 26.5 0 0 1 5.83 36.15L10.76 35.36A21.5 21.5 0 0 0 12.84 41.76Z" fill="#c62828"/><path d="M12.84 41.76A21.5 21.5 0 0 1 10.76 35.36L23.11 33.41A9 9 0 0 0 23.98 36.09Z" fill="#1e1e22"/><path d="M5.83 36.15A26.5 26.5 0 0 1 5.83 27.85L10.76 28.64A21.5 21.5 0 0 0 10.76 35.36Z" fill="#2e7d32"/><path d="M10.76 35.36A21.5 21.5 0 0 1 10.76 28.64L23.11 30.59A9 9 0 0 0 23.11 33.41Z" fill="#f0e6d2"/><path d="M5.83 27.85A26.5 26.5 0 0 1 8.39 19.97L12.84 22.24A21.5 21.5 0 0 0 10.76 28.64Z" fill="#c62828"/><path d="M10.76 28.64A21.5 21.5 0 0 1 12.84 22.24L23.98 27.91A9 9 0 0 0 23.11 30.59Z" fill="#1e1e22"/><path d="M8.39 19.97A26.5 26.5 0 0 1 13.26 13.26L16.8 16.8A21.5 21.5 0 0 0 12.84 22.24Z" fill="#2e7d32"/><path d="M12.84 22.24A21.5 21.5 0 0 1 16.8 16.8L25.64 25.64A9 9 0 0 0 23.98 27.91Z" fill="#f0e6d2"/><path d="M13.26 13.26A26.5 26.5 0 0 1 19.97 8.39L22.24 12.84A21.5 21.5 0 0 0 16.8 16.8Z" fill="#c62828"/><path d="M16.8 16.8A21.5 21.5 0 0 1 22.24 12.84L27.91 23.98A9 9 0 0 0 25.64 25.64Z" fill="#1e1e22"/><path d="M19.97 8.39A26.5 26.5 0 0 1 27.85 5.83L28.64 10.76A21.5 21.5 0 0 0 22.24 12.84Z" fill="#2e7d32"/><path d="M22.24 12.84A21.5 21.5 0 0 1 28.64 10.76L30.59 23.11A9 9 0 0 0 27.91 23.98Z" fill="#f0e6d2"/><circle cx="32" cy="32" r="9" fill="#2e7d32"/><circle cx="32" cy="32" r="4.5" fill="#c62828"/></svg>
